HIERARCHY
ROOT pelvis
{
  OFFSET 0 100 0
  CHANNELS 6 Xposition Yposition Zposition Zrotation Xrotation Yrotation
  JOINT pelvis_right_femur
  {
    OFFSET -10.78128 -3.44521 -0.5502486
    CHANNELS 3 Zrotation Xrotation Yrotation
    JOINT right_femur_tibia
    {
      OFFSET -0.8047443 -44.0398 -0.1307829
      CHANNELS 3 Zrotation Xrotation Yrotation
      JOINT right_tibia_foot
      {
        OFFSET 3.006224 -47.83518 -5
        CHANNELS 3 Zrotation Xrotation Yrotation
        End Site
        {
          OFFSET 0 -5 15
        }
      }
    }
  }
  JOINT pelvis_left_femur
  {
    OFFSET 10.78128 -3.44521 -0.5502486
    CHANNELS 3 Zrotation Xrotation Yrotation
    JOINT left_femur_tibia
    {
      OFFSET 0.8047443 -44.0398 -0.1307829
      CHANNELS 3 Zrotation Xrotation Yrotation
      JOINT left_tibia_foot
      {
        OFFSET -4.370144 -48.10324 -4.275266
        CHANNELS 3 Zrotation Xrotation Yrotation
        End Site
        {
          OFFSET 0 -5 15
        }
      }
    }
  }
  JOINT pelvis_spine1
  {
    OFFSET 0 6.468898 -3.129235
    CHANNELS 3 Zrotation Xrotation Yrotation
    JOINT spine1
    {
      OFFSET 0 23.15396 4.99043
      CHANNELS 3 Zrotation Xrotation Yrotation
      JOINT spine2
      {
        OFFSET 0 20.79997 -5.064912
        CHANNELS 3 Zrotation Xrotation Yrotation
        JOINT neck
        {
          OFFSET 0 14.38658 9.616178
          CHANNELS 3 Zrotation Xrotation Yrotation
          End Site
          {
            OFFSET 0 20 0
          }
        }
      }
      JOINT right_manubrium
      {
        OFFSET -5.722621 16.35077 3.967754
        CHANNELS 3 Zrotation Xrotation Yrotation
        JOINT right_clavicle
        {
          OFFSET -13.16364 1.694482 -4.693211
          CHANNELS 3 Zrotation Xrotation Yrotation
          JOINT right_humerus
          {
            OFFSET -28.5034 -0.3100689 -2.792744
            CHANNELS 3 Zrotation Xrotation Yrotation
            JOINT right_radius
            {
              OFFSET -25.15693 0.02248979 -1.271978
              CHANNELS 3 Zrotation Xrotation Yrotation
              End Site
              {
                OFFSET -15 0 0
              }
            }
          }
        }
      }
      JOINT left_manubrium
      {
        OFFSET 5.722621 16.35077 3.967754
        CHANNELS 3 Zrotation Xrotation Yrotation
        JOINT left_clavicle
        {
          OFFSET 13.16364 1.694482 -4.693211
          CHANNELS 3 Zrotation Xrotation Yrotation
          JOINT left_humerus
          {
            OFFSET 29.39168 -1.063119 -2.237045
            CHANNELS 3 Zrotation Xrotation Yrotation
            JOINT left_radius
            {
              OFFSET 24.59957 -0.9528479 0.9047498
              CHANNELS 3 Zrotation Xrotation Yrotation
              End Site
              {
                OFFSET 15 -0 -0
              }
            }
          }
        }
      }
    }
  }
}
MOTION
Frames: 23
Frame Time: 0.0416666666667
0 103.5113 0 3.285553 1.224292 0.2194518 2.607385 -14.50828 10.8174 -0 36.99506 -0 -3.314039 -19.44819 -2.761013 -9.929568 8.70379 -23.04016 -0 4.68681 -0 20.94857 -10.55811 29.42674 -1.484715 -1.676438 5.885247 2.306827 10.77497 -7.219655 1.341746 21.01043 6.392563 3.415609 -25.59245 8.75426 4.861617 -19.54732 11.32636 86.83725 34.77736 -18.90921 -0 0 14.0899 -8.906553 8.657154 4.70909 6.126697 -21.29418 -1.603585 -93.02482 21.78708 22.4673 0 0 -15.49296 12.91559 13.51143 -0.1148308
0.4182677 103.6407 1.476988 2.588037 1.944791 0.4329847 3.736656 -16.74228 11.1765 -0 36.28062 -0 -3.791775 -18.12066 -2.628646 -9.576123 8.476272 -22.82076 -0 4.86613 -0 20.83999 -11.5002 29.77694 -1.510636 -1.619275 5.766114 2.388198 10.7531 -7.293931 1.346008 20.96387 6.391323 3.397631 -25.70207 8.753039 4.833673 -19.43169 11.37073 86.91 34.63111 -18.97991 -0 0 13.92331 -8.979606 8.636453 4.808509 6.076001 -21.22895 -1.582629 -92.84513 21.69473 22.14624 0 0 -15.5202 12.81924 13.39243 -0.1622396
0.7362307 103.1778 3.78474 0.5386808 1.135668 0.6025395 4.525694 -24.27664 6.445298 -0 28.32234 -0 -6.50096 -10.96011 -2.108726 -7.065663 11.94515 -20.24881 -0 5.170348 -0 10.39678 -19.07432 24.57831 -1.590155 -1.896893 5.647186 2.434658 10.6137 -7.38449 1.395396 20.87111 6.518666 3.491775 -25.83698 8.970284 5.128858 -19.38178 11.31985 86.80955 34.73205 -19.29536 -0 0 14.23015 -8.500503 8.674371 4.431286 6.306558 -21.28675 -1.462305 -93.29545 22.07081 22.38564 0 0 -15.25192 12.82743 13.96074 -0.09176129
1.041082 102.877 5.804522 -0.2763217 1.932757 0.6089175 5.960858 -25.29343 8.789033 -0 30.01304 -0 -6.114171 -12.0341 -3.086915 -6.511582 11.21052 -21.46631 -0 5.346976 -0 7.774213 -20.89122 25.15121 -1.677229 -2.070075 5.470278 2.524803 10.47302 -7.495336 1.430917 20.77478 6.61985 3.550114 -26.00262 9.129133 5.334022 -19.27354 11.30731 86.72321 34.68508 -19.51586 -0 0 14.39407 -8.218352 8.698979 4.261462 6.448024 -21.2675 -1.33895 -93.52465 22.32799 22.36193 0 0 -15.0453 12.6966 14.31293 0.01325245
1.327582 102.2795 8.475454 -0.5442892 2.389875 0.7570927 6.022801 -29.58407 6.727571 -0 24.78322 -0 -6.803364 -8.084636 -2.4154 -6.192445 12.44797 -19.35132 -0 5.83271 -0 6.915276 -22.16083 22.56115 -1.797718 -2.290064 5.242703 2.634742 10.2779 -7.621999 1.469319 20.65691 6.761938 3.628522 -26.20819 9.332587 5.582735 -19.158 11.28689 86.55188 34.59279 -19.70614 -0 0 14.66377 -7.912524 8.741495 4.095709 6.63736 -21.22744 -1.155366 -93.82799 22.63915 22.35186 0 0 -14.71583 12.51574 14.75425 0.1560789
1.618434 101.5852 11.56345 -0.9044324 3.206344 1.026803 6.603939 -32.5094 6.354715 -0 21.41258 -0 -7.016466 -5.734813 -2.066552 -5.926526 12.93292 -18.42395 -0 6.740209 -0 6.019914 -23.01169 21.05649 -1.906293 -2.419794 4.99651 2.768591 10.08562 -7.75088 1.486365 20.54206 6.891536 3.686716 -26.42945 9.485676 5.750578 -19.0196 11.29722 86.38526 34.44628 -19.79719 -0 0 14.81503 -7.774837 8.793144 4.083202 6.768999 -21.15536 -0.9658136 -93.9456 22.79744 22.16102 0 0 -14.4608 12.3196 15.02418 0.2313424
1.907345 100.7971 15.24207 -1.204226 3.765883 1.425643 6.97009 -34.92721 5.618437 -0 17.83007 -0 -7.268586 -2.831087 -1.574828 -5.624715 13.74916 -17.06308 -0 8.48313 -0 5.004162 -23.10368 18.98007 -2.004918 -2.49816 4.737119 2.918315 9.886144 -7.883633 1.486656 20.42324 7.024982 3.741108 -26.66258 9.611899 5.87543 -18.86547 11.32614 86.21201 34.28455 -19.82984 -0 0 14.89487 -7.741327 8.864847 4.159588 6.881933 -21.07624 -0.761689 -93.9451 22.8497 21.85025 0 0 -14.26823 12.13455 15.20097 0.2414371
2.197904 100.0437 19.52151 -1.635559 4.274779 1.954545 7.55645 -36.38665 5.299666 -0 15.2073 -0 -7.56376 -0.3553455 -1.136747 -5.170487 14.41547 -15.97354 -0 11.12942 -0 3.285587 -22.59686 16.71309 -2.071677 -2.501972 4.495443 3.071011 9.709928 -8.012711 1.468349 20.31021 7.141769 3.782856 -26.88226 9.687349 5.932618 -18.70053 11.37587 86.08677 34.13692 -19.83369 -0 0 14.84146 -7.819875 8.947821 4.312194 6.956194 -21.01022 -0.5782337 -93.7858 22.76544 21.41202 0 0 -14.22603 11.99577 15.23824 0.1613956
2.483938 99.43411 24.42586 -2.160683 4.547718 2.570509 8.204142 -36.56627 5.144443 -0 13.67654 -0 -7.898326 1.462478 -0.8481289 -4.542241 14.93061 -14.95142 -0 14.93682 -0 0.7921403 -21.21641 14.11302 -2.103721 -2.450534 4.29205 3.210552 9.57131 -8.130688 1.438471 20.20903 7.234773 3.812397 -27.06847 9.717021 5.932824 -18.53955 11.43541 86.02759 34.01858 -19.84139 -0 0 14.67794 -7.966532 9.030685 4.493107 6.998536 -20.97054 -0.4338929 -93.51698 22.58496 20.91094 0 0 -14.33208 11.91229 15.16593 0.01622615
2.757835 99.10703 29.90889 -2.768484 4.579197 3.196462 8.887201 -35.16277 5.171806 -0 13.50571 -0 -8.264111 2.003485 -0.8277988 -3.749661 14.98213 -14.09574 -0 20.10167 -0 -2.388642 -18.85621 11.41473 -2.099919 -2.357964 4.150311 3.320206 9.490486 -8.226123 1.405251 20.13215 7.288174 3.823079 -27.1993 9.701397 5.881104 -18.40115 11.49502 86.05276 33.93478 -19.87277 -0 0 14.42881 -8.140819 9.093457 4.664062 7.000772 -20.9594 -0.3537076 -93.18977 22.35417 20.42254 0 0 -14.56503 11.87994 15.0034 -0.1535907
3.010488 99.17763 35.85209 -3.321776 4.262135 3.692758 9.422584 -32.06757 5.256333 -0 14.56334 -0 -8.555701 0.9300275 -1.214733 -2.932373 14.27096 -13.30401 -0 26.87385 -0 -5.704323 -15.54409 9.043342 -2.067029 -2.245269 4.089075 3.383848 9.48161 -8.284352 1.377944 20.09371 7.289643 3.809635 -27.25731 9.647487 5.790966 -18.30827 11.54407 86.15683 33.88511 -19.92467 -0 0 14.14822 -8.300898 9.117226 4.792753 6.956653 -20.96861 -0.3529864 -92.87613 22.13029 20.04176 0 0 -14.85422 11.88767 14.78614 -0.3004217
3.237931 99.71856 42.05496 -3.603131 3.479968 3.889586 9.60502 -27.48861 5.306519 -0 16.2896 -0 -8.660377 -1.576243 -2.018717 -2.332024 12.45063 -12.4738 -0 35.40639 -0 -8.398895 -11.70099 7.525278 -2.012745 -2.128378 4.124829 3.386633 9.555389 -8.28878 1.363376 20.10769 7.230351 3.768818 -27.22842 9.561456 5.674091 -18.28347 11.5745 86.32229 33.87163 -19.97397 -0 0 13.892 -8.421708 9.088833 4.861332 6.860814 -20.98682 -0.4391385 -92.63777 21.95433 19.85307 0 0 -15.11848 11.93292 14.54439 -0.3947506
3.444375 100.7223 48.27324 -3.360051 2.115083 3.670521 9.219169 -21.91153 5.231473 -0 17.68286 -0 -8.468804 -4.613156 -3.014629 -2.193754 9.242188 -11.51393 -0 45.34566 -0 -9.848611 -8.125197 7.211758 -1.942313 -2.016251 4.270215 3.315422 9.715827 -8.223651 1.363718 20.18315 7.110669 3.703599 -27.10271 9.448558 5.536411 -18.34589 11.58067 86.52386 33.90232 -19.98393 -0 0 13.70708 -8.503638 9.007299 4.86693 6.717871 -21.00836 -0.6075262 -92.51236 21.83539 19.91074 0 0 -15.29431 12.03296 14.29802 -0.442361
3.632935 102.0703 54.29812 -2.49079 0.2134009 3.091748 8.187062 -15.91092 4.941883 -0 17.72832 -0 -7.954949 -7.003979 -3.762427 -2.526971 4.567862 -10.43105 -0 55.08789 -0 -9.949978 -5.675584 8.080403 -1.856102 -1.910944 4.533099 3.161058 9.956852 -8.077314 1.375035 20.32225 6.940996 3.622549 -26.87382 9.311365 5.376446 -18.50956 11.55914 86.73183 33.99028 -19.91298 -0 0 13.6238 -8.569845 8.885811 4.821693 6.543681 -21.03743 -0.8420958 -92.50832 21.75533 20.23284 0 0 -15.36074 12.21393 14.05471 -0.4701914
3.792153 103.5183 60.05124 -1.216934 -1.917819 2.3709 6.769941 -9.927709 4.453681 -0 16.04736 -0 -7.151794 -8.112224 -3.934667 -2.942865 -1.207293 -9.237688 -0 61.76567 -0 -9.174652 -4.716468 9.795415 -1.750778 -1.81267 4.913402 2.922691 10.25561 -7.845284 1.386477 20.52006 6.742071 3.537867 -26.53915 9.15011 5.191429 -18.78304 11.50803 86.90347 34.15215 -19.71759 -0 0 13.66198 -8.653785 8.752693 4.75239 6.363927 -21.08629 -1.115065 -92.61374 21.69095 20.81089 0 0 -15.3427 12.48581 13.82004 -0.4924695
3.90801 104.7561 65.59169 -0.03257241 -3.815076 1.685933 5.518645 -4.183805 3.947802 -0 13.24114 -0 -6.158245 -8.419643 -3.591211 -2.860765 -7.359505 -7.899798 -0 62.91995 -0 -8.218845 -4.875014 11.93402 -1.621036 -1.725195 5.398641 2.612715 10.56541 -7.533594 1.379495 20.76505 6.545997 3.46426 -26.09984 8.963643 4.986867 -19.16736 11.42653 86.97099 34.40979 -19.35373 -0 0 13.83759 -8.785746 8.652989 4.698588 6.213013 -21.17306 -1.386952 -92.80555 21.6373 21.61774 0 0 -15.31037 12.81978 13.61095 -0.4800047
3.995999 105.5273 71.01267 0.644205 -5.095547 1.047992 4.834242 1.131636 3.514173 -0 10.37093 -0 -5.275684 -9.000156 -2.956216 -2.002861 -13.26205 -6.450235 -0 58.37918 -0 -7.416624 -5.449455 14.07923 -1.458829 -1.654609 5.95854 2.261666 10.81353 -7.163524 1.326837 21.03862 6.397683 3.419147 -25.56169 8.749069 4.780732 -19.64943 11.3152 86.83918 34.79089 -18.78224 -0 0 14.15381 -8.990045 8.649851 4.710582 6.133266 -21.32256 -1.608866 -93.04131 21.6108 22.59259 0 0 -15.38952 13.14449 13.4558 -0.3576326
4.101753 105.706 76.36684 0.7299831 -5.622849 0.4034739 4.728139 5.731913 3.031774 -0 8.208463 -0 -4.908161 -10.41487 -2.145815 -0.5390157 -18.51146 -5.005028 -0 49.88726 -0 -6.606917 -5.893575 15.83205 -1.25392 -1.596343 6.535908 1.924225 10.90895 -6.776596 1.19459 21.31572 6.349616 3.418388 -24.94326 8.49949 4.596014 -20.18954 11.18032 86.39972 35.31059 -17.97226 -0 0 14.57448 -9.297848 8.8154 4.856373 6.162012 -21.5571 -1.729161 -93.23285 21.63204 23.60116 0 0 -15.75718 13.35121 13.36966 -0.02633466
4.277008 105.2971 81.69108 0.3830782 -5.522781 -0.2620193 4.98998 9.360347 2.443619 -0 7.114197 -0 -5.153513 -12.46626 -1.29984 1.174236 -22.67606 -3.655082 -0 39.53085 -0 -5.547399 -5.91659 16.92883 -1.006805 -1.519257 7.040614 1.675738 10.77226 -6.427989 0.9584056 21.57292 6.435813 3.460596 -24.29527 8.206728 4.442939 -20.71426 11.04089 85.56714 35.92437 -16.89024 -0 0 15.01541 -9.762893 9.190908 5.233485 6.294858 -21.85591 -1.707366 -93.24327 21.70768 24.41963 0 0 -16.54518 13.30491 13.31924 0.5961246
4.566697 104.4174 87.05961 -0.1578537 -5.069734 -0.9303283 5.321452 11.96344 1.886087 -0 7.253211 -0 -5.711744 -14.61782 -0.6346844 2.715407 -25.32174 -2.540222 -0 29.17676 -0 -4.244127 -5.473079 17.33228 -0.7525053 -1.373831 7.373543 1.575163 10.39684 -6.156176 0.6396215 21.8013 6.625165 3.508931 -23.70918 7.875942 4.302782 -21.13593 10.92857 84.35075 36.48831 -15.50199 -0 0 15.39539 -10.45016 9.721055 5.943414 6.450354 -22.1085 -1.539461 -92.96057 21.82576 24.81412 0 0 -17.65129 12.89627 13.21955 1.51026
4.999331 103.269 92.60276 -0.6284214 -4.549597 -1.583116 5.368329 13.85012 1.546023 -0 8.692121 -0 -6.130245 -16.2881 -0.2546519 3.598068 -26.38819 -1.974667 -0 20.55972 -0 -3.033421 -4.804169 17.29037 -0.562887 -1.136807 7.49108 1.604929 9.903264 -5.952795 0.3275484 22.00342 6.804752 3.504061 -23.27273 7.536901 4.135999 -21.39725 10.87196 82.93994 36.79442 -13.85507 -0 0 15.71042 -11.38232 10.23506 6.995298 6.500851 -22.15255 -1.284141 -92.4115 21.95776 24.69663 0 0 -18.67969 12.13291 12.98333 2.590119
5.5716 102.0896 98.47394 -0.7833629 -4.174777 -2.207702 4.816061 15.68493 1.489452 -0 11.43243 -0 -6.082571 -16.91321 -0.02490346 3.422671 -26.41018 -2.349474 -0 15.02227 -0 -2.437016 -4.382518 17.34303 -0.500071 -0.8465211 7.451404 1.665555 9.49423 -5.779835 0.131649 22.16975 6.85265 3.419384 -22.98871 7.224779 3.927393 -21.49764 10.87835 81.66822 36.7018 -12.17765 -0 0 16.02339 -12.48542 10.55361 8.226053 6.376325 -21.91551 -1.04974 -91.7734 22.07108 24.20532 0 0 -19.22323 11.15406 12.58332 3.663032
6.246288 101.0952 104.7835 -0.4955634 -4.055598 -2.774166 3.560136 17.94612 1.648879 -0 15.49467 -0 -5.57412 -15.85946 0.288111 2.121795 -26.08645 -3.791996 -0 12.94284 -0 -2.665759 -4.605737 17.97861 -0.5650123 -0.5729502 7.366941 1.659936 9.310947 -5.618369 0.09606998 22.27348 6.738195 3.29177 -22.76963 6.951764 3.720704 -21.46968 10.93472 80.79614 36.25327 -10.78972 -0 0 16.36406 -13.6133 10.63747 9.381073 6.120374 -21.48971 -0.9272951 -91.23156 22.15485 23.58754 0 0 -19.21435 10.11937 12.06578 4.652057
